<svg height="68" viewBox="0 0 426 68" width="426" xmlns="http://www.w3.org/2000/svg"><g fill="none" fill-rule="evenodd" transform=""><g fill-rule="nonzero" transform="translate(72)"><g fill="#889597"><path d="m13.908 67.69h-13.363v-66.759h26.721c2.454 0 4.812.319 7.078.955 2.265.636 4.384 1.536 6.353 2.7 1.971 1.165 3.771 2.562 5.402 4.19 1.629 1.629 3.024 3.435 4.189 5.421 1.162 1.987 2.064 4.114 2.7 6.379.633 2.264.955 4.625.955 7.078 0 3.662-.7 7.113-2.093 10.356-1.398 3.242-3.307 6.074-5.727 8.494-2.422 2.422-5.255 4.328-8.497 5.728-3.242 1.396-6.697 2.095-10.359 2.095h-13.358zm0-53.398v26.721h13.358c1.831 0 3.553-.349 5.169-1.048 1.613-.694 3.024-1.651 4.235-2.86 1.209-1.211 2.166-2.633 2.864-4.262s1.045-3.355 1.045-5.188-.347-3.564-1.045-5.193-1.655-3.047-2.864-4.261c-1.211-1.208-2.622-2.163-4.235-2.861-1.616-.698-3.338-1.048-5.169-1.048z"/><path d="m75.124 67.69h-13.36v-66.759h26.721c2.451 0 4.812.319 7.079.955 2.264.636 4.383 1.536 6.352 2.7 1.971 1.165 3.771 2.562 5.4 4.19s3.027 3.435 4.191 5.421c1.162 1.987 2.062 4.114 2.7 6.379.633 2.264.952 4.625.952 7.078 0 2.295-.285 4.531-.861 6.703-.573 2.175-1.396 4.233-2.464 6.19-1.071 1.955-2.383 3.757-3.935 5.398-1.554 1.645-3.292 3.07-5.213 4.285l7.4 17.455h-14.199l-5.82-13.453-14.943.092zm0-53.398v26.721h13.36c1.832 0 3.554-.349 5.167-1.048 1.616-.694 3.027-1.651 4.235-2.86 1.211-1.211 2.169-2.633 2.864-4.262.7-1.629 1.048-3.355 1.048-5.188s-.348-3.564-1.048-5.193c-.695-1.629-1.652-3.047-2.864-4.261-1.208-1.208-2.62-2.163-4.235-2.861-1.613-.698-3.335-1.048-5.167-1.048z"/><path d="m137.273 67.69h-13.36v-66.759h13.36z"/></g><path d="m328.585 41.012c0 3.695-.693 7.16-2.092 10.406-1.396 3.242-3.309 6.065-5.727 8.473-2.424 2.404-5.256 4.307-8.498 5.703-3.24 1.396-6.713 2.096-10.404 2.096-3.689 0-7.16-.697-10.402-2.096-3.246-1.396-6.068-3.299-8.475-5.703-2.404-2.406-4.305-5.229-5.701-8.473-1.396-3.246-2.096-6.711-2.096-10.406v-40.081l13.311 13.361v26.722c0 1.83.352 3.553 1.053 5.166.693 1.615 1.648 3.025 2.859 4.238 1.211 1.211 2.627 2.166 4.262 2.858 1.629.701 3.355 1.05 5.189 1.05 1.832 0 3.561-.349 5.189-1.05 1.631-.692 3.049-1.647 4.258-2.858 1.215-1.213 2.168-2.623 2.863-4.238.699-1.613 1.051-3.336 1.051-5.166v-40.083h13.357v40.081z" fill="#44b3e6"/><path d="m353.542 67.69h-13.363v-66.759h13.363z" fill="#44b3e6"/><path d="m266.578 67.69h-22.879-22.883v-33.379-33.38h27.188 27.189l6.654 6.679 6.658 6.683h-27.164-27.162v6.681 6.682h10.963 10.965v6.68 6.68h-10.965-10.963v6.654 6.658h16.199 16.199v6.682 6.68z" fill="#889597"/></g><path d="m347.193 16.26v-1.975l13.312.007z" fill="#2e8aaa" fill-rule="nonzero"/><g fill="#889597"><path d="m44.3478261 31.1450382-4.6956522-1.038168 3.6521739 5.1908397v16.0916031l12.5217392-10.3816794v-17.648855l-5.7391305 2.0763359z" fill-rule="nonzero"/><path d="m8.34782609 31.1450382-4.69565218-1.038168 3.65217392 5.1908397v16.0916031l12.52173917-10.3816794v-17.648855l-5.7391305 2.0763359z" fill-rule="nonzero" transform="matrix(-1 0 0 1 23.47826 0)"/><path d="m17.7391304 54.0046439v-2.0759924l7.122951 5.0901723-.0051526-2.0803615-7.1177984-5.0864902v-2.0759923l7.122951 5.0901722-.0051526-2.0803615-7.1177984-5.0864901v-9.3634225l4.1739131-6.2290077 2.6086956 1.5572519h10.4347826l2.6086957-1.5572519 4.173913 6.2290077v9.2550052l-7.2695125 5.1949074-.0051525 2.0803615 7.274665-5.1985895v2.0759924l-7.2695125 5.1949074-.0051525 2.0803615 7.274665-5.1985895v2.0759923l-7.2695125 5.1949074-.0051525 2.0803615 7.274665-5.1985895v3.7217505l-3.1304347 4.6717557-3.652174 3.6335878h-10.4347826l-3.6521739-3.6335878-3.1304348-4.6717557v-3.6133332l7.122951 5.0901722-.0051526-2.0803615z"/><path d="m43.3043478 61.2519084 6.7826087-6.7480916v-6.7480916l-6.7826087 5.7099237z" fill-rule="nonzero"/><path d="m9.39130435 61.2519084 6.78260865-6.7480916v-6.7480916l-6.78260865 5.7099237z" fill-rule="nonzero" transform="matrix(-1 0 0 1 25.565218 0)"/><path d="m26.6086957 0h2.0869565v29.5877863h-3.1304348l-6.7826087-19.72519088 4.173913-9.86259542h1.5652174v11.9389313l2.0869566 1.0381679zm4.173913 0h2.0869565v12.9770992l2.0869565-1.0381679v-11.9389313h1.5652174l4.1739131 9.86259542-6.2608696 19.72519088h-3.6521739z"/><path d="m25.5652174 29.5877863-22.43478262-8.3053436-3.13043478-12.97709919 19.3043478 1.55725191 6.7826087 19.72519088z" fill-rule="nonzero"/><path d="m59.4782609 29.5877863-22.4347826-8.3053436-3.1304348-12.97709919 19.8260869 1.55725191 6.2608696 19.72519088z" fill-rule="nonzero" transform="matrix(-1 0 0 1 93.913044 0)"/><path d="m41.7391304 8.30534351 10.9565218-1.03816794-7.3043479-7.26717557h-7.3043478z" fill-rule="nonzero"/><path d="m10.4347826 8.30534351 10.9565217-1.03816794-7.3043478-7.26717557h-7.3043478z" fill-rule="nonzero" transform="matrix(-1 0 0 1 28.173914 0)"/><path d="m278.783 0h-6.783c-2.076 0-3.455.989-4.345 2.672l-15.099 28.197c-.395.791-.691 1.284-1.086 1.284s-.691-.493-1.086-1.284l-15.097-28.197c-.889-1.683-2.27-2.672-4.343-2.672h-6.784c-2.07 0-3.552 1.286-3.552 3.363v59.404 3.539 1.383h1.677 10.534 1.579v-1.979-2.942-32.494c0-.691.296-.793.493-.793.296 0 .493.197.79.692l8.882 16.326c.688 1.188 1.677 1.682 2.96 1.682h7.896c1.283 0 2.271-.494 2.959-1.682l8.881-16.325c.299-.494.496-.691.791-.691.197 0 .494.1.494.791v32.494 2.943 1.979h1.578 10.533 1.678v-1.383-3.539-59.306c0-2.077-1.479-3.462-3.55-3.462z" fill-rule="nonzero"/></g></g></svg>