<?xml version="1.0" encoding="utf-8"?>
<!-- Generator: Adobe Illustrator 15.1.0, SVG Export Plug-In . SVG Version: 6.00 Build 0)  -->
<!DOCTYPE svg PUBLIC "-//W3C//DTD SVG 1.1//EN" "http://www.w3.org/Graphics/SVG/1.1/DTD/svg11.dtd">
<svg version="1.1" id="LOGO" xmlns="http://www.w3.org/2000/svg" xmlns:xlink="http://www.w3.org/1999/xlink" x="0px" y="0px"
	 width="83px" height="90px" viewBox="0 0 83 90" enable-background="new 0 0 83 90" xml:space="preserve">
<g id="LOGOO">
	<polyline id="LOGObackground" fill="#252C30" points="0,7.75 13.625,10.333 23.021,0 59.751,0 69.5,10.333 83,7.75 73.834,33.844 
		69.627,66.229 50,90 32.5,90 12.625,66.166 8.667,34.083 	"/>
	<g id="grayArea">
		<polygon fill="#879496" points="35.751,40.833 13.167,32.417 9.751,18 27.667,21.583 		"/>
		<polygon fill="#879496" points="46.751,40.833 69.335,32.417 72.751,18 54.835,21.583 		"/>
		<polygon fill="#879496" points="28.334,20.25 16.917,18 24.667,7.75 34.417,7.75 		"/>
		<polygon fill="#879496" points="54,20.25 65.417,18 57.667,7.75 47.917,7.75 		"/>
		<polygon fill="#879496" points="52.698,22.906 44.625,43.958 47.042,59.938 35.042,59.938 37.761,43.938 29.667,22.906 
			34.917,7.75 47.334,7.75 		"/>
		<polygon fill="#879496" points="18.709,42.958 26.626,47.209 26.626,64 13.625,52.875 13.625,34.083 18.709,36.167 		"/>
		<polygon fill="#879496" points="63.543,42.958 55.626,47.209 55.626,64 68.627,52.875 68.627,34.083 63.543,36.167 		"/>
		<polygon fill="#879496" points="49.708,41.125 46.751,42.667 46.751,45.562 48.604,60.969 44.637,65 41.183,65.031 37.729,65 
			33.761,60.969 35.614,45.562 35.614,42.667 32.657,41.125 28.574,48 28.574,72.969 32.792,69.094 41.183,69 49.573,69.094 
			53.791,72.969 53.791,48 		"/>
		<polygon fill="#879496" points="46.667,81.917 35.625,81.917 31.75,77.938 35.625,73.959 46.667,73.959 50.667,77.938 		"/>
		<polygon opacity="0.5" fill="#879496" enable-background="new    " points="26.626,73.959 19.417,65.959 19.417,60.5 
			26.626,65.209 		"/>
		<polygon opacity="0.5" fill="#879496" enable-background="new    " points="55.417,73.959 62.626,65.959 62.626,60.5 
			55.417,65.209 		"/>
		<polygon opacity="0.5" fill="#879496" enable-background="new    " points="48.667,72.969 33.698,72.969 30.729,77.031 
			28.574,75.906 33.625,70.834 48.792,70.834 53.791,75.906 51.667,77.031 		"/>
	</g>
</g>
</svg>
