<?xml version="1.0" encoding="utf-8"?>
<!-- Generator: Adobe Illustrator 15.1.0, SVG Export Plug-In . SVG Version: 6.00 Build 0)  -->
<!DOCTYPE svg PUBLIC "-//W3C//DTD SVG 1.1//EN" "http://www.w3.org/Graphics/SVG/1.1/DTD/svg11.dtd">
<svg version="1.1" id="Layer_1" xmlns="http://www.w3.org/2000/svg" xmlns:xlink="http://www.w3.org/1999/xlink" x="0px" y="0px"
	 width="300px" height="300px" viewBox="0 0 300 300" enable-background="new 0 0 300 300" xml:space="preserve">
<g id="PFMOBILE">
	<g id="IPAD">
		<path id="DEVICE_1_" fill="#404C51" d="M229.471,0.772H63.062c-10.707,0-19.389,8.679-19.389,19.388v227.803
			c0,10.704,8.682,19.383,19.389,19.383h166.408c10.703,0,19.387-8.679,19.387-19.383V20.161
			C248.857,9.451,240.174,0.772,229.471,0.772z M146.266,9.234c1.619,0,2.932,1.312,2.932,2.929c0,1.619-1.312,2.929-2.932,2.929
			c-1.613,0-2.931-1.31-2.931-2.929C143.335,10.546,144.652,9.234,146.266,9.234z M146.266,263.998
			c-4.293,0-7.777-3.483-7.777-7.771c0-4.3,3.484-7.779,7.777-7.779c4.294,0,7.778,3.479,7.778,7.779
			C154.044,260.515,150.56,263.998,146.266,263.998z M226.237,243.926H66.293V24.2h159.944V243.926z"/>
		<rect id="SCREEN_1_" x="66.293" y="24.2" fill="#FFD100" width="159.944" height="219.726"/>
	</g>
	<g id="IPHONE">
		<path id="DEVICE" fill="#404C51" d="M244.208,124.74h-59.371c-6.686,0-12.118,5.425-12.118,12.117v150.252
			c0,6.694,5.433,12.118,12.118,12.118h59.371c6.694,0,12.118-5.424,12.118-12.118V136.857
			C256.326,130.165,250.902,124.74,244.208,124.74z M214.522,130.128c1.399,0,2.523,1.132,2.523,2.524
			c0,1.395-1.124,2.526-2.523,2.526c-1.391,0-2.523-1.132-2.523-2.526C211.999,131.26,213.132,130.128,214.522,130.128z
			 M208.815,138.807h11.413c0.672,0,1.217,0.542,1.217,1.212c0,0.669-0.545,1.211-1.217,1.211h-11.413
			c-0.668,0-1.211-0.542-1.211-1.211C207.604,139.349,208.147,138.807,208.815,138.807z M214.522,295.931
			c-4.514,0-8.177-3.664-8.177-8.182c0-4.512,3.663-8.176,8.177-8.176c4.522,0,8.18,3.664,8.18,8.176
			C222.702,292.267,219.045,295.931,214.522,295.931z M250.874,274.993H178.17V148.974h72.704V274.993z"/>
		<rect id="SCREEN" x="178.17" y="148.974" fill="#FFD100" width="72.704" height="126.019"/>
	</g>
</g>
</svg>
